<?xml version="1.0" encoding="UTF-8" standalone="no"?>
<svg xmlns="http://www.w3.org/2000/svg" version="1.1" xmlns:xlink="http://www.w3.org/1999/xlink" xmlns:svgjs="http://svgjs.dev/svgjs" width="20" height="20" viewBox="0 0 2000 2000"><g transform="matrix(1,0,0,1,-0.28443113772425477,-0.28443113772459583)"><svg viewBox="0 0 334 334" data-background-color="#ffffff" preserveAspectRatio="xMidYMid meet" height="2000" width="2000" xmlns="http://www.w3.org/2000/svg" xmlns:xlink="http://www.w3.org/1999/xlink"><g id="tight-bounds" transform="matrix(1,0,0,1,0.04749999999998522,0.04750000000001364)"><svg viewBox="0 0 333.90454557049503 333.90454557049503" height="333.90454557049503" width="333.90454557049503"><g><svg></svg></g><g><svg viewBox="0 0 333.90454557049503 333.90454557049503" height="333.90454557049503" width="333.90454557049503"><g><path d="M0 166.952c0-92.205 74.747-166.952 166.952-166.952 92.205 0 166.952 74.747 166.953 166.952 0 92.205-74.747 166.952-166.953 166.953-92.205 0-166.952-74.747-166.952-166.953zM166.952 324.507c87.015 0 157.555-70.54 157.555-157.555 0-87.015-70.54-157.555-157.555-157.555-87.015 0-157.555 70.54-157.555 157.555 0 87.015 70.54 157.555 157.555 157.555z" data-fill-palette-color="tertiary" fill="#111111" stroke="transparent"></path><ellipse rx="160.27418187383762" ry="160.27418187383762" cx="166.95227278524752" cy="166.95227278524752" fill="#111111" stroke="transparent" stroke-width="0" fill-opacity="1" data-fill-palette-color="tertiary"></ellipse></g><g transform="matrix(1,0,0,1,116.18078175108562,71.17305217166896)"><svg viewBox="0 0 101.54298206832381 191.55844122715712" height="191.55844122715712" width="101.54298206832381"><g><svg viewBox="0 0 101.54298206832381 191.55844122715712" height="191.55844122715712" width="101.54298206832381"><g><svg viewBox="0 0 186.66550530820035 352.14007407876727" height="191.55844122715712" width="101.54298206832381"><g transform="matrix(1,0,0,1,0,160.58163285161015)"><svg viewBox="0 0 186.66550530820035 191.55844122715712" height="191.55844122715712" width="186.66550530820035"><g id="textblocktransform"><svg viewBox="0 0 186.66550530820035 191.55844122715712" height="191.55844122715712" width="186.66550530820035" id="textblock"><g><svg viewBox="0 0 186.66550530820035 191.55844122715712" height="191.55844122715712" width="186.66550530820035"><g transform="matrix(1,0,0,1,0,0)"><svg width="186.66550530820035" viewBox="2.9800000190734863 -38.720001220703125 37.25 38.22999954223633" height="191.55844122715712" data-palette-color="#61dafb"><path d="M40.23-8.59L40.23-8.59Q40.23-6.25 39.11-4.81 37.99-3.37 35.94-2.49L35.94-2.49Q34.23-1.76 31.64-1.34 29.05-0.93 26.27-0.76 23.49-0.59 20.8-0.54 18.12-0.49 16.31-0.49L16.31-0.49Q13.23-0.49 10.23-0.59 7.23-0.68 4.15-0.88L4.15-0.88Q4.3-5.86 3.86-10.74L3.86-10.74Q7.52-10.64 11.16-10.57 14.79-10.5 18.46-10.4L18.46-10.4Q19.87-10.35 21.31-10.3 22.75-10.25 24.22-10.25L24.22-10.25Q24.46-10.25 24.95-10.25 25.44-10.25 25.98-10.3 26.51-10.35 26.98-10.45 27.44-10.55 27.69-10.74L27.69-10.74Q27.88-10.94 27.93-11.3 27.98-11.67 27.98-11.96L27.98-11.96Q27.98-12.5 27.83-13.26 27.69-14.01 27.39-14.5L27.39-14.5Q27.34-14.55 27.08-14.6 26.81-14.65 26.46-14.67 26.12-14.7 25.83-14.72 25.54-14.75 25.49-14.75L25.49-14.75Q22.36-14.99 19.26-15.09 16.16-15.19 13.04-15.43L13.04-15.43Q11.62-15.58 10.13-15.72 8.64-15.87 7.37-16.26L7.37-16.26Q6.15-16.6 5.3-17.8 4.44-18.99 3.93-20.53 3.42-22.07 3.2-23.63 2.98-25.2 2.98-26.27L2.98-26.27Q2.98-28.03 3.32-29.61 3.66-31.2 4.42-32.57 5.18-33.94 6.35-34.99 7.52-36.04 9.23-36.72L9.23-36.72Q12.16-37.84 15.5-38.28 18.85-38.72 21.92-38.72L21.92-38.72Q25.54-38.72 29.05-38.28 32.57-37.84 36.08-37.16L36.08-37.16Q36.04-35.74 36.01-34.35 35.99-32.96 35.99-31.54L35.99-31.54Q35.99-30.13 36.13-28.69 36.28-27.25 36.43-25.83L36.43-25.83Q31.79-25.73 27.17-25.66 22.56-25.59 17.87-25.39L17.87-25.39Q17.29-25.39 16.28-25.34 15.28-25.29 14.36-25.22 13.43-25.15 12.74-25.1 12.06-25.05 12.06-25.05L12.06-25.05Q11.82-24.51 11.77-23.95 11.72-23.39 11.72-22.8L11.72-22.8Q11.72-22.51 11.74-22.07 11.77-21.63 11.96-21.39L11.96-21.39Q12.01-21.34 12.79-21.24 13.57-21.14 14.53-21.04 15.48-20.95 16.33-20.85 17.19-20.75 17.38-20.75L17.38-20.75Q18.99-20.61 21.17-20.41 23.34-20.21 25.61-19.97 27.88-19.73 29.98-19.36 32.08-18.99 33.64-18.51L33.64-18.51Q35.06-18.02 36.25-16.97 37.45-15.92 38.33-14.53 39.21-13.13 39.72-11.6 40.23-10.06 40.23-8.59Z" opacity="1" transform="matrix(1,0,0,1,0,0)" fill="#61dafb" class="undefined-text-0" data-fill-palette-color="quaternary" id="text-0"></path></svg></g></svg></g></svg></g></svg></g><g transform="matrix(1,0,0,1,35.65311151386627,0)"><svg viewBox="0 0 115.35928228046781 115.35928228046781" height="115.35928228046781" width="115.35928228046781"><g><svg xmlns="http://www.w3.org/2000/svg" data-name="Layer 1" viewBox="0 0 128 128" x="0" y="0" height="115.35928228046781" width="115.35928228046781" class="icon-icon-0" data-fill-palette-color="quaternary" id="icon-0"><path d="M18.136 82.998c-4.542 11.393-4.679 20.969 0.609 26.257 2.711 2.711 6.544 3.998 11.174 3.998a41.839 41.839 0 0 0 15.084-3.387C49.847 121.133 56.521 128 64 128s14.153-6.867 18.997-18.135a41.841 41.841 0 0 0 15.084 3.387c4.628 0 8.464-1.287 11.174-3.997 5.288-5.288 5.151-14.864 0.609-26.257C121.132 78.154 128 71.479 128 64s-6.868-14.154-18.136-18.998c4.542-11.393 4.679-20.969-0.609-26.257C103.966 13.457 94.39 13.593 82.998 18.135 78.154 6.868 71.479 0 64 0 56.521 0 49.846 6.868 45.002 18.136c-11.392-4.542-20.968-4.679-26.257 0.609-5.288 5.288-5.151 14.864-0.609 26.257C6.868 49.846 0 56.521 0 64S6.868 78.154 18.136 82.998Zm3.437 23.429c-4.121-4.121-3.695-12.19 0.274-21.963a100.747 100.747 0 0 0 17.21 4.479A100.75 100.75 0 0 0 43.535 106.153C33.763 110.121 25.696 110.546 21.573 106.427Zm15.493-38.063Q35.315 66.18 33.71 64q1.604-2.179 3.356-4.364C37.027 61.078 37 62.53 37 64S37.027 66.922 37.066 68.364Zm-5.816-7.814a98.957 98.957 0 0 1-7.776-13.336A98.959 98.959 0 0 1 38.402 43.282q-0.656 4.687-1.012 9.696Q34.103 56.764 31.25 60.55ZM37.39 75.022q0.352 5.001 1.012 9.696a98.959 98.959 0 0 1-14.928-3.932 98.957 98.957 0 0 1 7.776-13.336Q34.1 71.228 37.39 75.022ZM47.736 47.736q3.382-3.382 6.856-6.436Q59.203 41.007 64 41q4.789 0 9.408 0.3 3.463 3.051 6.856 6.436 3.384 3.384 6.437 6.861Q86.993 59.206 87 64q0 4.786-0.299 9.403-3.052 3.465-6.437 6.861-3.384 3.384-6.861 6.437Q68.794 86.993 64 87q-4.786 0-9.403-0.299-3.465-3.052-6.861-6.437-3.384-3.384-6.437-6.861Q41.007 68.794 41 64q0-4.786 0.299-9.403Q44.352 51.131 47.736 47.736Zm-5.867 0.305q0.306-2.783 0.713-5.459 2.675-0.406 5.459-0.713c-1.048 0.992-2.093 1.999-3.133 3.039S42.862 46.993 41.869 48.041ZM59.625 37.067q2.189-1.756 4.375-3.361 2.184 1.608 4.375 3.361C66.929 37.027 65.474 37 64 37S61.071 37.027 59.625 37.067ZM79.959 41.869q2.783 0.306 5.459 0.713 0.406 2.675 0.713 5.459c-0.992-1.048-2-2.093-3.039-3.133S81.007 42.862 79.959 41.869Zm6.172 38.09q-0.306 2.783-0.713 5.459-2.672 0.406-5.453 0.712 1.569-1.486 3.127-3.038C84.131 82.052 85.138 81.007 86.131 79.959ZM68.364 90.934q-2.184 1.752-4.364 3.357-2.179-1.604-4.365-3.357C61.078 90.973 62.53 91 64 91S66.922 90.973 68.364 90.934ZM48.035 86.13q-2.78-0.306-5.453-0.712-0.406-2.675-0.713-5.459c0.992 1.048 2 2.093 3.039 3.133Q46.465 84.648 48.035 86.13Zm-4.753 3.468q4.685 0.655 9.691 1.012 3.786 3.288 7.573 6.143a98.939 98.939 0 0 1-13.332 7.773A98.957 98.957 0 0 1 43.282 89.598ZM64 124c-5.827 0-11.23-6.004-15.334-15.718a100.87 100.87 0 0 0 15.334-9.011 100.857 100.857 0 0 0 15.335 9.01C75.231 117.996 69.827 124 64 124Zm16.786-19.473A98.95 98.95 0 0 1 67.454 96.753q3.778-2.851 7.574-6.143 4.998-0.352 9.69-1.012A98.956 98.956 0 0 1 80.786 104.527Zm25.641 1.9c-4.121 4.122-12.19 3.696-21.963-0.273a100.752 100.752 0 0 0 4.479-17.211 100.747 100.747 0 0 0 17.21-4.479C110.122 94.237 110.547 102.306 106.427 106.427ZM90.934 59.636Q92.685 61.82 94.29 64q-1.604 2.179-3.356 4.364C90.973 66.922 91 65.47 91 64S90.973 61.078 90.934 59.636ZM90.61 52.978q-0.352-5.001-1.012-9.696a98.959 98.959 0 0 1 14.928 3.932 98.957 98.957 0 0 1-7.776 13.336Q93.9 56.772 90.61 52.978Zm0 22.044q3.287-3.785 6.14-7.572a98.957 98.957 0 0 1 7.776 13.336A98.959 98.959 0 0 1 89.598 84.718Q90.254 80.031 90.61 75.022ZM124 64c0 5.828-6.006 11.232-15.723 15.336A100.743 100.743 0 0 0 99.274 64 100.743 100.743 0 0 0 108.277 48.664C117.994 52.768 124 58.172 124 64ZM98.044 18.67c3.534 0 6.41 0.932 8.383 2.903 4.121 4.121 3.695 12.19-0.273 21.963a100.747 100.747 0 0 0-17.211-4.479 100.75 100.75 0 0 0-4.479-17.211A37.466 37.466 0 0 1 98.044 18.67ZM84.718 38.402q-4.687-0.656-9.696-1.012-3.784-3.286-7.569-6.138a99.022 99.022 0 0 1 13.333-7.779A98.949 98.949 0 0 1 84.718 38.402ZM64 4c5.828 0 11.232 6.006 15.336 15.722a100.746 100.746 0 0 0-15.337 9.004A100.755 100.755 0 0 0 48.664 19.723C52.768 10.006 58.172 4 64 4ZM47.214 23.474a99.029 99.029 0 0 1 13.333 7.778q-3.777 2.85-7.569 6.138-5.001 0.352-9.696 1.012A98.954 98.954 0 0 1 47.214 23.474ZM21.573 21.573c1.973-1.973 4.848-2.903 8.383-2.903a37.465 37.465 0 0 1 13.58 3.176 100.749 100.749 0 0 0-4.479 17.211A100.747 100.747 0 0 0 21.846 43.536C17.878 33.763 17.453 25.694 21.573 21.573ZM19.723 48.664A100.743 100.743 0 0 0 28.726 64 100.743 100.743 0 0 0 19.723 79.336C10.006 75.232 4 69.828 4 64S10.006 52.768 19.723 48.664Z" fill="#61dafb" data-fill-palette-color="quaternary"></path><path d="M64 81A17 17 0 1 0 47 64 17.019 17.019 0 0 0 64 81Zm0-30A13 13 0 1 1 51 64 13.015 13.015 0 0 1 64 51Z" fill="#61dafb" data-fill-palette-color="quaternary"></path><path d="M64 72a8 8 0 1 0-8-8A8.009 8.009 0 0 0 64 72Zm0-12a4 4 0 1 1-4 4A4.004 4.004 0 0 1 64 60Z" fill="#61dafb" data-fill-palette-color="quaternary"></path></svg></g></svg></g><g></g></svg></g></svg></g></svg></g></svg></g><defs></defs></svg><rect width="333.90454557049503" height="333.90454557049503" fill="none" stroke="none" visibility="hidden"></rect></g></svg></g></svg>
